<svg height='100px' width='100px'  fill="#000000" xmlns="http://www.w3.org/2000/svg" data-name="Слой 1" viewBox="0 0 100 100" x="0px" y="0px"><title>тюрбан</title><path d="M56.35524,16.54241c1.8,0.30971,3.62574.51481,5.39474,0.95047,3.905,0.96161,5.15977,4.68755,7.16623,7.4586,1.49409,2.06335,3.0491,3.63041,5.46236,4.21083,5.53159,1.33037,9.22973,5.08106,12.52567,9.35513,3.61522,4.68812,4.1933,10.10471,3.53769,15.75952-0.38407,3.31317-.98749,6.604-1.28331,9.9235a15.77252,15.77252,0,0,1-3.47494,8.37071,15.07135,15.07135,0,0,0-1.48341,2.452,5.16779,5.16779,0,0,1-4.62963,3.187,5.30041,5.30041,0,0,1-5.2677-2.8591c-1.77074-3.28963-3.44346-6.6434-5.4293-9.79912a5.48989,5.48989,0,0,0-3.22578-2.04483,55.401,55.401,0,0,0-17.25005-.58449A7.53447,7.53447,0,0,0,44.31642,64.842c-6.12191,5.6498-12.091,11.46481-18.15147,17.18182-1.79486,1.6932-2.56387,1.43691-4.59976.03829-3.67108-2.522-5.42752-6.356-7.65634-9.95508-2.25236-3.63715-3.29644-7.62973-4.35239-11.63926C8.10376,54.95209,9.62719,49.8602,12.59668,45.263c5.26066-8.14456,12.92849-13.83153,20.5876-19.49038,5.07824-3.75184,10.31608-7.25739,16.51065-8.85843a40.51528,40.51528,0,0,1,6.61668-.62818ZM13.37785,65.806c1.99254-1.15317,3.85462-2.2046,5.69054-3.29993,2.32055-1.38452,4.89588-2.4959,6.87713-4.26679,6.31057-5.64046,12.282-11.661,18.606-17.28553A95.97732,95.97732,0,0,0,58.058,26.12948c1.15388-1.56458,2.2648-3.16081,3.4457-4.8129-1.51229-.72731-2.25857-0.30152-3.26913.76172a59.441,59.441,0,0,1-8.18207,7.5729A119.11982,119.11982,0,0,1,38.295,36.68462a61.93118,61.93118,0,0,0-13.81093,9.8086c-3.77615,3.73613-7.21644,7.82118-10.686,11.85463C11.20082,61.36723,11.24131,62.62792,13.37785,65.806Zm-1.99427-5.999a4.21174,4.21174,0,0,0,.89158-1.32608c-1.31878-2.28086.74646-3.29541,1.80145-4.477a57.58175,57.58175,0,0,1,5.12-4.66746c3.94457-3.46539,7.67795-7.22449,11.90787-10.2992C37.22016,34.59168,43.7659,30.74245,49.99063,26.44a80.5787,80.5787,0,0,0,6.92756-5.99258q-0.19292-.376-0.3858-0.752c-2.27382.04749-4.5599-.03958-6.81924,0.16643-8.44631.77025-14.65282,5.967-20.79832,11.022-4.13933,3.40477-7.7462,7.44913-11.70617,11.08215a22.15436,22.15436,0,0,0-5.78381,9.73375A10.80543,10.80543,0,0,0,11.38357,59.807ZM62.649,24.4641l-0.49669-.133c-0.85814.96738-1.73551,1.91848-2.571,2.905-3.1265,3.69161-6.32186,7.32921-9.3288,11.11619-2.07649,2.615-3.93484,5.31853-7.0088,6.99912a22.07883,22.07883,0,0,0-4.469,3.80974c-3.417,3.3333-6.52054,7.03868-10.20674,10.03218-4.46245,3.624-9.39463,6.66949-14.23358,10.042,0.96287,1.77019,1.91466,3.52,2.65436,4.87994,2.2636-1.476,4.26957-2.96506,6.43974-4.15481,2.9644-1.62522,6.15819-2.66688,8.65464-5.27074,2.90306-3.02795,6.39514-5.4855,9.57355-8.25723,1.95161-1.70193,4.15114-3.27609,5.6182-5.34752,4.20237-5.93362,8.2435-11.99695,12.02278-18.20718C60.845,30.335,61.557,27.28393,62.649,24.4641Zm1.67361-1.34768a52.90177,52.90177,0,0,1-1.27141,5.93251c-2.18534,6.32195-6.27875,11.56939-10.051,16.94832-2.37534,3.387-5.60351,6.17021-8.03846,9.52251A51.494,51.494,0,0,1,28.62883,69.88508c-3.46658,2.00013-6.79239,4.24418-10.59018,6.6354,1.61357,1.41965,2.9947,2.49878,4.211,3.73957,1.5033,1.5335,2.51424.84886,3.74131-.4044,3.76438-3.84491,7.54953-7.67516,11.46039-11.36951,4.02507-3.80232,8.36752-7.27776,12.28313-11.1848A90.73656,90.73656,0,0,0,64.67589,38.38772c1.67136-2.91467,2.87194-6.10013,4.261-9.17406a0.86718,0.86718,0,0,0-.0717-0.75335C67.52095,26.838,66.1419,25.2446,64.32263,23.11643Zm-0.49,21.87713-0.06342.587c0.63839,0.37605,1.29644.72267,1.91212,1.13281,4.79524,3.19451,9.85906,6.00153,13.4082,10.814a13.60117,13.60117,0,0,0,7.874,5.17928c0.36463-2.80165.62727-5.477,1.08871-8.11772,0.2762-1.58034-.7167-2.16132-1.77969-2.53062-6.85133-2.38039-13.727-4.69128-20.60838-6.98352A6.68527,6.68527,0,0,0,63.83258,44.99356ZM64.9982,42.7819c2.18535,0.73547,4.244,1.40031,6.28329,2.12011q7.46759,2.63582,14.91832,5.31942c2.189,0.79141,2.8884.35944,2.49931-1.88216A26.33471,26.33471,0,0,0,87.22147,43.069a2.80749,2.80749,0,0,0-1.92177-1.40876c-5.39295-.73235-10.80485-1.32536-16.21082-1.96194C66.33434,39.37394,65.75832,39.79252,64.9982,42.7819ZM80.73732,74.09142c2.41044-.716,1.79-2.087.75422-3.52106-0.39968-.55345-0.81616-1.09766-1.26087-1.61525-2.61462-3.04289-5.38618-5.96433-7.82574-9.14105-3.28623-4.2793-7.94946-5.85766-12.81391-7.22141a6.943,6.943,0,0,1-1.66554-1.13847c-0.497.51023-1.07286,1.10152-1.845,1.89424,1.00087,0.431,1.69561.68237,2.34607,1.01933,1.86283,0.96494,3.97052,1.66707,5.49993,3.01816a65.93192,65.93192,0,0,1,6.81173,7.28459c2.432,2.91578,4.5965,6.05389,7.00658,8.98915a10.43187,10.43187,0,0,0,2.75467,1.88789,1.86112,1.86112,0,0,0,.81291-0.3119ZM59.54486,49.75848A30.17765,30.17765,0,0,1,64.252,51.08612a29.29966,29.29966,0,0,1,11.64711,9.62679c2.515,3.52722,5.37462,6.80867,8.10754,10.23165,2.15132-2.61619,2.35482-3.90316.33165-6.00812-1.715-1.78444-4.2016-2.88369-5.72461-4.78463-3.29806-4.11633-8.92052-5.50739-11.60741-10.24477a2.201,2.201,0,0,0-.82806-0.58c-1.38657-.82256-2.77848-1.63607-4.28774-2.52286ZM84.78812,39.71843l0.28906-.70611c-1.97214-1.70048-3.93448-3.41273-5.93172-5.08328a1.249,1.249,0,0,0-.921-0.09946c-2.31486.48081-4.62291,0.9944-6.933,1.49821a2.97717,2.97717,0,0,1-1.13131.22685c-1.71275-.3903-1.92754-0.24753-2.27317,1.84187ZM63.97218,60.75013l0.33183-.51348q-2.60887-1.40541-5.218-2.81028A32.76535,32.76535,0,0,0,55.52569,55.58a2.38756,2.38756,0,0,0-2.02633.10692c-1.74925,1.58888-3.33916,3.35316-5.01,5.07777C53.71474,60.75978,58.84346,60.755,63.97218,60.75013ZM41.21581,58.759l-0.67043-.74544-7.76387,7.29452q0.258,0.28468.516,0.5694Q37.25667,62.31819,41.21581,58.759ZM70.2779,32.865l6.20171-.54676C73.126,30.55062,71.1242,30.72251,70.2779,32.865ZM36.33459,50.43918l-0.30188-.18886-7.94989,7.68185,0.35489,0.35259Q32.38617,54.362,36.33459,50.43918ZM20.41634,63.68431l-0.33232-.524-4.81163,3.12854q0.1931,0.2951.38631,0.59019Q18.03747,65.28166,20.41634,63.68431ZM49.44106,28.75716l-0.18589-.38474q-2.46181,1.646-4.92371,3.29191l0.25717,0.37025Z"></path></svg>